<mxfile host="app.diagrams.net" modified="2024-06-23T10:59:47.507Z" agent="Mozilla/5.0 (Macintosh; Intel Mac OS X 10_15_7) AppleWebKit/537.36 (KHTML, like Gecko) Chrome/126.0.0.0 Safari/537.36" etag="jGRfZdya2PI3CcEPjAAL" version="24.6.2" type="device">
  <diagram name="第 1 页" id="eblIy1gel4zxv7QnzbRk">
    <mxGraphModel dx="896" dy="594" grid="1" gridSize="10" guides="1" tooltips="1" connect="1" arrows="1" fold="1" page="1" pageScale="1" pageWidth="827" pageHeight="1169" background="#ffffff" math="0" shadow="1">
      <root>
        <mxCell id="0" />
        <mxCell id="1" parent="0" />
        <mxCell id="UbDL8gAqY7I1QO4A23qI-10" style="edgeStyle=orthogonalEdgeStyle;rounded=0;orthogonalLoop=1;jettySize=auto;html=1;entryX=0;entryY=0.5;entryDx=0;entryDy=0;curved=1;dashed=1;dashPattern=1 1;" edge="1" parent="1" source="UbDL8gAqY7I1QO4A23qI-1" target="UbDL8gAqY7I1QO4A23qI-5">
          <mxGeometry relative="1" as="geometry" />
        </mxCell>
        <mxCell id="UbDL8gAqY7I1QO4A23qI-11" style="edgeStyle=orthogonalEdgeStyle;rounded=0;orthogonalLoop=1;jettySize=auto;html=1;entryX=0;entryY=0.5;entryDx=0;entryDy=0;curved=1;dashed=1;dashPattern=1 1;" edge="1" parent="1" source="UbDL8gAqY7I1QO4A23qI-1" target="UbDL8gAqY7I1QO4A23qI-6">
          <mxGeometry relative="1" as="geometry" />
        </mxCell>
        <mxCell id="UbDL8gAqY7I1QO4A23qI-1" value="Controller" style="rounded=1;whiteSpace=wrap;html=1;" vertex="1" parent="1">
          <mxGeometry x="130" y="150" width="90" height="40" as="geometry" />
        </mxCell>
        <mxCell id="UbDL8gAqY7I1QO4A23qI-13" style="edgeStyle=orthogonalEdgeStyle;rounded=0;orthogonalLoop=1;jettySize=auto;html=1;entryX=0;entryY=0.5;entryDx=0;entryDy=0;curved=1;dashed=1;dashPattern=1 1;" edge="1" parent="1" source="UbDL8gAqY7I1QO4A23qI-2" target="UbDL8gAqY7I1QO4A23qI-7">
          <mxGeometry relative="1" as="geometry" />
        </mxCell>
        <mxCell id="UbDL8gAqY7I1QO4A23qI-2" value="Model" style="rounded=1;whiteSpace=wrap;html=1;" vertex="1" parent="1">
          <mxGeometry x="130" y="230" width="90" height="40" as="geometry" />
        </mxCell>
        <mxCell id="UbDL8gAqY7I1QO4A23qI-3" value="View" style="rounded=1;whiteSpace=wrap;html=1;" vertex="1" parent="1">
          <mxGeometry x="130" y="300" width="90" height="40" as="geometry" />
        </mxCell>
        <mxCell id="UbDL8gAqY7I1QO4A23qI-14" style="edgeStyle=orthogonalEdgeStyle;rounded=0;orthogonalLoop=1;jettySize=auto;html=1;entryX=0;entryY=0.5;entryDx=0;entryDy=0;curved=1;dashed=1;dashPattern=1 1;" edge="1" parent="1" source="UbDL8gAqY7I1QO4A23qI-4" target="UbDL8gAqY7I1QO4A23qI-8">
          <mxGeometry relative="1" as="geometry" />
        </mxCell>
        <mxCell id="UbDL8gAqY7I1QO4A23qI-4" value="DAO" style="rounded=1;whiteSpace=wrap;html=1;" vertex="1" parent="1">
          <mxGeometry x="130" y="380" width="90" height="40" as="geometry" />
        </mxCell>
        <mxCell id="UbDL8gAqY7I1QO4A23qI-5" value="api" style="rounded=1;whiteSpace=wrap;html=1;" vertex="1" parent="1">
          <mxGeometry x="350" y="130" width="90" height="40" as="geometry" />
        </mxCell>
        <mxCell id="UbDL8gAqY7I1QO4A23qI-18" style="edgeStyle=orthogonalEdgeStyle;rounded=0;orthogonalLoop=1;jettySize=auto;html=1;entryX=0.5;entryY=0;entryDx=0;entryDy=0;dashed=1;dashPattern=1 1;" edge="1" parent="1" source="UbDL8gAqY7I1QO4A23qI-6" target="UbDL8gAqY7I1QO4A23qI-7">
          <mxGeometry relative="1" as="geometry" />
        </mxCell>
        <mxCell id="UbDL8gAqY7I1QO4A23qI-6" value="service" style="rounded=1;whiteSpace=wrap;html=1;" vertex="1" parent="1">
          <mxGeometry x="350" y="200" width="90" height="40" as="geometry" />
        </mxCell>
        <mxCell id="UbDL8gAqY7I1QO4A23qI-7" value="biz" style="rounded=1;whiteSpace=wrap;html=1;" vertex="1" parent="1">
          <mxGeometry x="350" y="290" width="90" height="40" as="geometry" />
        </mxCell>
        <mxCell id="UbDL8gAqY7I1QO4A23qI-16" style="edgeStyle=orthogonalEdgeStyle;rounded=0;orthogonalLoop=1;jettySize=auto;html=1;entryX=0.5;entryY=1;entryDx=0;entryDy=0;dashed=1;dashPattern=1 1;" edge="1" parent="1" source="UbDL8gAqY7I1QO4A23qI-8" target="UbDL8gAqY7I1QO4A23qI-7">
          <mxGeometry relative="1" as="geometry" />
        </mxCell>
        <mxCell id="UbDL8gAqY7I1QO4A23qI-8" value="data" style="rounded=1;whiteSpace=wrap;html=1;" vertex="1" parent="1">
          <mxGeometry x="350" y="370" width="90" height="40" as="geometry" />
        </mxCell>
        <mxCell id="UbDL8gAqY7I1QO4A23qI-15" style="edgeStyle=orthogonalEdgeStyle;rounded=0;orthogonalLoop=1;jettySize=auto;html=1;entryX=1;entryY=0.5;entryDx=0;entryDy=0;curved=1;dashed=1;dashPattern=1 1;" edge="1" parent="1" source="UbDL8gAqY7I1QO4A23qI-9" target="UbDL8gAqY7I1QO4A23qI-8">
          <mxGeometry relative="1" as="geometry" />
        </mxCell>
        <mxCell id="UbDL8gAqY7I1QO4A23qI-9" value="" style="shape=cylinder3;whiteSpace=wrap;html=1;boundedLbl=1;backgroundOutline=1;size=15;" vertex="1" parent="1">
          <mxGeometry x="530" y="360" width="50" height="70" as="geometry" />
        </mxCell>
        <mxCell id="UbDL8gAqY7I1QO4A23qI-17" value="Implement" style="text;html=1;align=center;verticalAlign=middle;resizable=0;points=[];autosize=1;strokeColor=none;fillColor=none;" vertex="1" parent="1">
          <mxGeometry x="391" y="339" width="80" height="30" as="geometry" />
        </mxCell>
        <mxCell id="UbDL8gAqY7I1QO4A23qI-19" value="DTO -&amp;gt; DO" style="text;html=1;align=center;verticalAlign=middle;resizable=0;points=[];autosize=1;strokeColor=none;fillColor=none;" vertex="1" parent="1">
          <mxGeometry x="391" y="248" width="80" height="30" as="geometry" />
        </mxCell>
      </root>
    </mxGraphModel>
  </diagram>
</mxfile>
